<svg width="248" height="435" viewBox="0 0 248 435" fill="none" xmlns="http://www.w3.org/2000/svg">
<path class="primary" fill-rule="evenodd" clip-rule="evenodd" d="M123.636 247.664V0.921631H43.0357L0.482925 43.383V111.031H43.0357V247.664H123.636Z" fill="white"/>
<path class="secondary" fill-rule="evenodd" clip-rule="evenodd" d="M123.831 0.921631H205.302L247.831 43.3591V111.031H205.322V247.664H123.831V0.921631Z" fill="#AA0543"/>
<rect class="secondary" x="205.051" y="93.6395" width="42.8234" height="17.2803" fill="#7F7F7F"/>
<rect class="primary" x="0.232239" y="93.6395" width="42.8234" height="17.2803" fill="#7F7F7F"/>
<path fill-rule="evenodd" clip-rule="evenodd" d="M82.0147 0.921631C82.0147 24.2203 100.902 43.1076 124.201 43.1076C147.499 43.1076 166.387 24.2203 166.387 0.921631H82.0147Z" fill="#888888"/>
<rect class="primary" x="156.402" y="60.5808" width="8.69199" height="8.69199" fill="#9E9E9E"/>
<rect class="primary" x="169.355" y="60.5808" width="8.69199" height="8.69199" fill="#9E9E9E"/>
<rect class="primary" x="182.308" y="60.5808" width="8.69199" height="8.69199" fill="#9E9E9E"/>
<path class="primary" d="M161.856 94.1927V78.1722H185.546V94.1927L174.455 102.28L161.856 94.1927Z" fill="#9E9E9E"/>
<path class="tertiary" d="M205.128 249.669H43.1613V273.955L15.651 415.908L37.6364 420.464L106.435 434.722L123.629 389.912L142.542 434.722L210.038 420.464L231.607 415.908L205.128 273.955V249.669Z" fill="black"/>
<path fill-rule="evenodd" clip-rule="evenodd" d="M120.556 273.928L108.231 302.203C107.128 304.734 108.285 307.681 110.817 308.784C113.348 309.887 116.295 308.73 117.398 306.198L125.406 287.826L131.94 297.434C133.493 299.718 136.602 300.31 138.886 298.758C141.169 297.205 141.762 294.095 140.209 291.811L128.049 273.928H120.556Z" fill="white"/>
<path d="M43.2595 274.066H67.617L41.8542 421.043" stroke="#4F4F4F"/>
<path d="M204.882 274.066H181.557L206.227 421.043" stroke="#4F4F4F"/>
</svg>
