<svg width="248" height="435" viewBox="0 0 248 435" fill="none" xmlns="http://www.w3.org/2000/svg">
    <g class="primary" fill="#D9D9D9">
        <path d="M205.322 0.921631H43.0556L0.526855 43.4504V111.268H43.036V248.195H205.322V111.268H247.875V43.4744L205.322 0.921631Z"/>
    </g>

    <g class="secondary" fill="#7F7F7F">
        <rect x="205.051" y="93.6395" width="42.8234" height="17.2803" />
        <rect x="0.232239" y="93.6395" width="42.8234" height="17.2803" />
        <rect x="156.402" y="60.5808" width="8.69199" height="8.69199"/>
        <rect x="169.355" y="60.5808" width="8.69199" height="8.69199" />
        <rect x="182.308" y="60.5808" width="8.69199" height="8.69199" />
        <path d="M161.856 94.1927V78.1722H185.546V94.1927L174.455 102.28L161.856 94.1927Z" />
    </g>

    <g class="tertiary" fill="black">
        <path d="M205.268 249.669H44.1593V273.955L16.7947 415.908L38.6637 420.464L107.098 434.722L124.201 389.912L143.014 434.722L210.152 420.464L231.607 415.908L205.268 273.955V249.669Z"/>
    </g>

    <path fill-rule="evenodd" clip-rule="evenodd" d="M82.0147 0.921631C82.0147 24.2203 100.902 43.1076 124.201 43.1076C147.499 43.1076 166.387 24.2203 166.387 0.921631H82.0147Z" fill="#888888"/>
    <path fill-rule="evenodd" clip-rule="evenodd" d="M120.556 273.928L108.231 302.203C107.128 304.734 108.285 307.681 110.817 308.784C113.348 309.887 116.295 308.73 117.398 306.198L125.406 287.826L131.94 297.434C133.493 299.718 136.602 300.31 138.886 298.758C141.169 297.205 141.762 294.095 140.209 291.811L128.049 273.928H120.556Z" fill="white"/>
    <path d="M44.292 274.066H67.617L42.9463 421.043" stroke="#4F4F4F"/>
    <path d="M204.882 274.066H181.557L206.227 421.043" stroke="#4F4F4F"/>
</svg>
