<svg width="248" height="435" viewBox="0 0 248 435" fill="none" xmlns="http://www.w3.org/2000/svg">
<path class="primary" d="M205.322 0.921631H43.0556L0.526855 43.3591V111.031H43.036V247.664H205.322V111.031H247.875V43.383L205.322 0.921631Z" fill="#D1D1D1"/>
<mask id="mask0_17_97" style="mask-type:alpha" maskUnits="userSpaceOnUse" x="0" y="0" width="248" height="248">
<path d="M205.322 0.921631H43.0556L0.526855 43.3591V111.031H43.036V247.664H205.322V111.031H247.875V43.383L205.322 0.921631Z" fill="#E81616"/>
<path d="M205.322 0.921631H43.0556L0.526855 43.3591V111.031H43.036V247.664H205.322V111.031H247.875V43.383L205.322 0.921631Z" fill="#E81616"/>
</mask>
<g mask="url(#mask0_17_97)">
<rect x="11.2635" y="21.4125" width="28.9784" height="287.341" transform="rotate(-45 11.2635 21.4125)" fill="#1FA775" class="secondary"/>
<path fill-rule="evenodd" clip-rule="evenodd" d="M82.0147 0.921661C82.0148 24.2203 100.902 43.1076 124.201 43.1076C147.499 43.1076 166.387 24.2203 166.387 0.921631L82.0147 0.921661Z" fill="#888888"/>
</g>
<path class="tertiary" d="M205.268 249.669H44.1593V273.955L16.7947 415.908L38.6637 420.464L107.098 434.722L124.201 389.912L143.014 434.722L210.152 420.464L231.607 415.908L205.268 273.955V249.669Z" fill="black"/>
<path fill-rule="evenodd" clip-rule="evenodd" d="M120.556 273.928L108.231 302.203C107.128 304.734 108.285 307.681 110.817 308.784C113.348 309.887 116.295 308.73 117.398 306.198L125.406 287.826L131.94 297.434C133.493 299.718 136.602 300.31 138.886 298.758C141.169 297.205 141.762 294.095 140.209 291.811L128.049 273.928H120.556Z" fill="white"/>
<path d="M44.292 274.066H67.617L42.9463 421.043" stroke="#4F4F4F"/>
<path d="M204.882 274.066H181.557L206.227 421.043" stroke="#4F4F4F"/>
</svg>
